<?xml version="1.0" encoding="UTF-8"?>
<!-- Generated by Pixelmator Pro 3.7.1 -->
<svg width="1000" height="1000" viewBox="0 0 1000 1000" xmlns="http://www.w3.org/2000/svg">
    <g id="Logo-Placeholder-Replace-With-Your-Logo-">
        <path id="Rounded-Rectangle" fill="#0e355d" fill-rule="evenodd" stroke="none" d="M 50 832 C 50 897.169617 102.830399 950 168 950 L 832 950 C 897.169617 950 950 897.169617 950 832 L 950 168 C 950 102.830383 897.169617 50 832 50 L 168 50 C 102.830399 50 50 102.830383 50 168 Z"/>
        <path id="path1" fill="#3983d4" fill-rule="evenodd" stroke="none" d="M 32 259 C 32 270.045715 40.954304 279 52 279 L 662 279 C 673.045715 279 682 270.045715 682 259 L 682 174 C 682 162.954285 673.045715 154 662 154 L 52 154 C 40.954304 154 32 162.954285 32 174 Z"/>
        <path id="Rectangle" fill="#111113" fill-rule="evenodd" stroke="none" d="M 50 659 L 950 659 L 950 618 L 50 618 Z"/>
        <path id="Rounded-Rectangle-copy" fill="#1c5faa" fill-rule="evenodd" stroke="none" d="M 32 630 C 32 641.045654 40.954304 650 52 650 L 953 650 C 964.045715 650 973 641.045654 973 630 L 973 370 C 973 358.954346 964.045715 350 953 350 L 52 350 C 40.954304 350 32 358.954346 32 370 Z"/>
        <path id="Rounded-Rectangle-copy-2" fill="#3983d4" fill-rule="evenodd" stroke="none" d="M 323 824 C 323 835.045715 331.954315 844 343 844 L 953 844 C 964.045715 844 973 835.045715 973 824 L 973 739 C 973 727.954346 964.045715 719 953 719 L 343 719 C 331.954315 719 323 727.954346 323 739 Z"/>
        <path id="Rounded-Rectangle-copy-3" fill="#3983d4" fill-rule="evenodd" stroke="none" d="M 32 824 C 32 835.045715 40.954304 844 52 844 L 277 844 C 288.045685 844 297 835.045715 297 824 L 297 739 C 297 727.954346 288.045685 719 277 719 L 52 719 C 40.954304 719 32 727.954346 32 739 Z"/>
        <path id="Rounded-Rectangle-copy-4" fill="#3983d4" fill-rule="evenodd" stroke="none" d="M 708 259 C 708 270.045715 716.954285 279 728 279 L 953 279 C 964.045654 279 973 270.045715 973 259 L 973 174 C 973 162.954285 964.045654 154 953 154 L 728 154 C 716.954285 154 708 162.954285 708 174 Z"/>
        <path id="Circle" fill="#0b1220" fill-rule="evenodd" stroke="none" d="M 323 500.5 C 323 462.668518 292.331512 432 254.5 432 C 216.668488 432 186 462.668518 186 500.5 C 186 538.331543 216.668488 569 254.5 569 C 292.331512 569 323 538.331543 323 500.5 Z"/>
        <path id="Circle-copy" fill="#0b1220" fill-rule="evenodd" stroke="none" d="M 571 500.5 C 571 462.668518 540.331482 432 502.5 432 C 464.668488 432 434 462.668518 434 500.5 C 434 538.331543 464.668488 569 502.5 569 C 540.331482 569 571 538.331543 571 500.5 Z"/>
        <path id="Circle-copy-2" fill="#0b1220" fill-rule="evenodd" stroke="none" d="M 819 500.5 C 819 462.668518 788.331482 432 750.5 432 C 712.668518 432 682 462.668518 682 500.5 C 682 538.331543 712.668518 569 750.5 569 C 788.331482 569 819 538.331543 819 500.5 Z"/>
    </g>
</svg>
